<?xml version="1.0" encoding="iso-8859-1"?>
<!-- Generator: Adobe Illustrator 16.0.0, SVG Export Plug-In . SVG Version: 6.00 Build 0)  -->
<!DOCTYPE svg PUBLIC "-//W3C//DTD SVG 1.1//EN" "http://www.w3.org/Graphics/SVG/1.1/DTD/svg11.dtd">
<svg xmlns="http://www.w3.org/2000/svg" xmlns:xlink="http://www.w3.org/1999/xlink" version="1.1" id="Capa_1" x="0px" y="0px" width="512px" height="512px" viewBox="0 0 389.987 389.988" style="enable-background:new 0 0 389.987 389.988;" xml:space="preserve">
<g>
	<g>
		<path d="M360.973,33.36H94.08c-16.005,0-29.018,13.018-29.018,29.018v19.885h-3.51c-16,0-29.03,13.012-29.03,29.018v19.891H29.03    C13.024,131.171,0,144.184,0,160.175v167.432c0,16.002,13.024,29.021,29.03,29.021h266.893c16.002,0,29.033-13.024,29.033-29.021    v-19.889h3.488c16.003,0,29.021-13.012,29.021-29.015v-19.882h3.507c16.009,0,29.015-13.013,29.015-29.01V62.377    C389.987,46.384,376.981,33.36,360.973,33.36z M198.765,252.535l-43.559,31.729c-2.516,1.825-5.503,2.756-8.5,2.756    c-2.231,0-4.477-0.511-6.542-1.567c-4.825-2.462-7.875-7.428-7.875-12.85v-63.459c0-5.422,3.05-10.389,7.875-12.851    c4.846-2.45,10.644-1.993,15.042,1.195l43.559,31.724c3.727,2.714,5.933,7.049,5.933,11.661    C204.691,245.485,202.491,249.82,198.765,252.535z" fill="#FFFFFF"/>
	</g>
</g>
<g>
</g>
<g>
</g>
<g>
</g>
<g>
</g>
<g>
</g>
<g>
</g>
<g>
</g>
<g>
</g>
<g>
</g>
<g>
</g>
<g>
</g>
<g>
</g>
<g>
</g>
<g>
</g>
<g>
</g>
</svg>
